<?xml version="1.0" encoding="UTF-8"?>
<svg xmlns="http://www.w3.org/2000/svg" xmlns:xlink="http://www.w3.org/1999/xlink" viewBox="0 0 50 50" width="50px" height="50px">
<g id="surface34598101">
<rect x="0" y="0" width="50" height="50" style="fill:rgb(100%,100%,100%);fill-opacity:1;stroke:none;"/>
<path style=" stroke:none;fill-rule:nonzero;fill:rgb(18.039216%,80.000001%,44.313726%);fill-opacity:1;" d="M 25 2 C 12.316406 2 2 12.316406 2 25 C 2 37.683594 12.316406 48 25 48 C 37.683594 48 48 37.683594 48 25 C 48 12.316406 37.683594 2 25 2 Z M 35.828125 16.5625 L 24.316406 33.523438 L 15.320312 25.175781 C 14.914062 24.800781 14.890625 24.167969 15.265625 23.761719 C 15.640625 23.355469 16.273438 23.335938 16.679688 23.710938 L 23.96875 30.472656 L 34.171875 15.4375 C 34.484375 14.980469 35.105469 14.863281 35.5625 15.171875 C 36.019531 15.480469 36.136719 16.105469 35.828125 16.5625 Z M 35.828125 16.5625 "/>
</g>
</svg>
